<svg xmlns="http://www.w3.org/2000/svg" viewBox="0 0 256 256"><path fill="#ff9022" d="M128 43c-7.4 0-13.3 5.9-13.3 13.3v5.7c-8.4 1.6-16.3 4.8-23.2 9.4l-4-4a13.3 13.3 0 0 0-18.9 0L58 78a13.3 13.3 0 0 0 0 18.9l4 4c-4.6 6.9-7.8 14.8-9.4 23.2h-5.7c-7.4 0-13.3 5.9-13.3 13.3v15.4c0 7.4 5.9 13.3 13.3 13.3h5.7c1.6 8.4 4.8 16.3 9.4 23.2l-4 4a13.3 13.3 0 0 0 0 18.9l10.6 10.6a13.3 13.3 0 0 0 18.9 0l4-4c6.9 4.6 14.8 7.8 23.2 9.4v5.7c0 7.4 5.9 13.3 13.3 13.3h15.4c7.4 0 13.3-5.9 13.3-13.3v-5.7c8.4-1.6 16.3-4.8 23.2-9.4l4 4a13.3 13.3 0 0 0 18.9 0l10.6-10.6a13.3 13.3 0 0 0 0-18.9l-4-4c4.6-6.9 7.8-14.8 9.4-23.2h5.7c7.4 0 13.3-5.9 13.3-13.3v-15.4c0-7.4-5.9-13.3-13.3-13.3h-5.7c-1.6-8.4-4.8-16.3-9.4-23.2l4-4A13.3 13.3 0 0 0 198 78l-10.6-10.6a13.3 13.3 0 0 0-18.9 0l-4 4a65.4 65.4 0 0 0-23.2-9.4v-5.7c0-7.4-5.9-13.3-13.3-13.3H128Zm7.7 46.1A45.9 45.9 0 1 1 90 135a45.9 45.9 0 0 1 45.7-45.9Zm0 24A21.9 21.9 0 1 0 157.6 135a21.9 21.9 0 0 0-21.9-21.9Z"/></svg>