<svg xmlns="http://www.w3.org/2000/svg" viewBox="0 0 256 256"><rect x="28" y="28" width="200" height="200" rx="52" fill="none" stroke="#52df5a" stroke-width="14"/><rect x="106" y="66" width="44" height="128" rx="18" fill="#b4ffbc" stroke="#52df5a" stroke-width="10"/><rect x="62" y="74" width="20" height="16" rx="7" fill="#52df5a"/><rect x="172" y="86" width="20" height="16" rx="7" fill="#52df5a"/><rect x="62" y="118" width="20" height="16" rx="7" fill="#52df5a"/><rect x="172" y="130" width="20" height="16" rx="7" fill="#52df5a"/><rect x="62" y="164" width="20" height="16" rx="7" fill="#52df5a"/><path d="M170 180c13-11 18-22 16-38-2-16-10-27-25-34-13-6-26-4-37 6-19 17-17 45 4 61 8 6 16 10 28 10" fill="none" stroke="#52df5a" stroke-width="10" stroke-linecap="round" stroke-linejoin="round"/><path d="M144 198l24-7-13-15" fill="#52df5a"/><path d="M128 58v24" stroke="#52df5a" stroke-width="8" stroke-linecap="round"/><path d="M128 58l34 10-34 12" fill="#52df5a"/></svg>